<svg width="125" height="125" viewBox="0 0 125 125" fill="none" xmlns="http://www.w3.org/2000/svg">
<circle cx="62.5" cy="62.5" r="62.5" fill="#0C0A0A"/>
<path d="M89.7763 36H34.2211C32.8904 36 31.892 36.9903 32.0094 38.1605L37.0837 88.1676C37.2012 89.3368 38.3512 90.5607 39.6411 90.8767L59.6446 95.7633C60.9328 96.0772 63.0382 96.0793 64.3282 95.7674L84.3565 90.8877C85.6468 90.5725 86.7967 89.3598 86.9142 88.1885L91.9906 38.1605C92.108 36.9903 91.1138 36 89.7763 36ZM80.1415 54.0512C80.1406 54.0587 80.1338 54.0647 80.1253 54.0661C80.1166 54.0674 80.1081 54.0634 80.1044 54.0562L64.4321 59.7043C64.209 59.7847 64.0817 59.993 64.1281 60.2011C64.1748 60.4093 64.3823 60.5594 64.6236 60.5594H76.8141C77.4625 60.5594 78.0803 60.8016 78.514 61.2257C78.9475 61.6498 79.156 62.2159 79.0872 62.7828L77.1824 78.4964C77.0889 79.2674 76.4999 79.9223 75.6681 80.1797L62.7289 84.1835C62.2416 84.3344 61.7104 84.3356 61.2219 84.1867L48.3431 80.2634C47.5064 80.0085 46.9124 79.3516 46.8183 78.5773L45.9548 71.4608C45.9095 71.0873 46.0468 70.7143 46.3323 70.435C46.6179 70.1556 47.025 69.996 47.4523 69.996H51.0361C51.8062 69.996 52.4521 70.5067 52.5335 71.18L53.0633 75.5543L61.9806 78.2802L70.9387 75.5295L72.0344 66.4574H46.706C45.9382 66.4574 45.2933 65.9495 45.2091 65.2783L44.7269 61.4333C44.6533 60.8468 45.0295 60.2884 45.6496 60.0637L61.86 54.1861C62.0439 54.1195 62.1484 53.948 62.1098 53.7764C62.0711 53.6049 61.9003 53.4815 61.7015 53.4815H44.6342C44.1204 53.4815 43.6895 53.1402 43.6358 52.6911L43.1421 48.5583C43.1124 48.3097 43.2041 48.0615 43.3945 47.8755C43.5848 47.6896 43.856 47.5835 44.1404 47.5835H79.8521C80.1381 47.5835 80.4105 47.6907 80.601 47.8783C80.7915 48.0659 80.8819 48.316 80.8495 48.5659L80.1415 54.0512Z" fill="#21DB7E"/>
</svg>
