<svg width="370" height="370" viewBox="0 0 370 370" fill="none" xmlns="http://www.w3.org/2000/svg">
<path d="M367.686 61.6674L267.222 186.496L365.208 308.334C368.174 301.997 370 294.732 370 286.887V76.7492C370 71.4236 369.117 66.3769 367.686 61.6674Z" fill="white"/>
<path d="M349.83 41.1116H18.4905C11.7909 41.1116 5.56436 42.7154 0 45.3056L175.922 202.143C181.026 206.694 189.891 206.694 194.906 202.143L370 46.1183C364.045 43.0174 357.212 41.1116 349.83 41.1116Z" fill="white"/>
<path d="M2.87559 61.6674C1.04523 66.8843 0 72.6211 0 78.6697V287.344C0 295.01 1.76122 302.109 4.61559 308.334L102.778 186.04L2.87559 61.6674Z" fill="white"/>
<path d="M246.499 206.894L212.392 239.813C198.065 253.452 174.853 253.675 160.291 239.813L124.794 205.556L20.5555 305.852C24.689 307.403 29.1458 308.333 33.8422 308.333H336.469C341.051 308.333 345.395 307.425 349.444 305.945L246.499 206.894Z" fill="white"/>
</svg>
