<svg width="125" height="125" viewBox="0 0 125 125" fill="none" xmlns="http://www.w3.org/2000/svg">
<circle cx="62.5" cy="62.5" r="62.5" fill="#0C0A0A"/>
<g filter="url(#filter0_i)">
<path d="M91.4256 59.2041L66.7959 34.5744C65.7514 33.5248 64.3757 33 63 33C61.6243 33 60.2487 33.5248 59.2041 34.5744L54.3332 39.4453L60.3608 45.4728C62.3631 44.2959 64.9718 44.5506 66.6889 46.2677C68.4059 47.9847 68.6556 50.5934 67.4786 52.5907L73.4042 58.5163C75.4066 57.3393 78.0154 57.5941 79.7324 59.3111C81.7704 61.3492 81.7704 64.6508 79.7324 66.6889C77.6944 68.7269 74.3927 68.7269 72.3547 66.6889C70.6376 64.9718 70.3828 62.3631 71.5598 60.3608L65.6342 54.4351C65.2112 54.6848 64.768 54.8682 64.3044 54.9854V71.0096C66.5514 71.5903 68.2175 73.6131 68.2175 76.0434C68.2175 78.9273 65.8838 81.2609 63 81.2609C60.1162 81.2609 57.7826 78.9273 57.7826 76.0434C57.7826 73.6131 59.4487 71.5903 61.6957 71.0096V54.9854C60.8243 54.7612 59.9939 54.3281 59.3111 53.6453C57.5941 51.9283 57.3445 49.3197 58.5215 47.3223L52.4888 41.2897L34.5744 59.2041C32.4752 61.2982 32.4752 64.7018 34.5744 66.7959L59.2041 91.4256C60.2487 92.4752 61.6243 93 63 93C64.3757 93 65.7514 92.4752 66.7959 91.4256L91.4256 66.7959C93.5248 64.7018 93.5248 61.2982 91.4256 59.2041Z" fill="#21DB7E"/>
</g>
<defs>
<filter id="filter0_i" x="33" y="33" width="60" height="64" filterUnits="userSpaceOnUse" color-interpolation-filters="sRGB">
<feFlood flood-opacity="0" result="BackgroundImageFix"/>
<feBlend mode="normal" in="SourceGraphic" in2="BackgroundImageFix" result="shape"/>
<feColorMatrix in="SourceAlpha" type="matrix" values="0 0 0 0 0 0 0 0 0 0 0 0 0 0 0 0 0 0 127 0" result="hardAlpha"/>
<feOffset dy="4"/>
<feGaussianBlur stdDeviation="2"/>
<feComposite in2="hardAlpha" operator="arithmetic" k2="-1" k3="1"/>
<feColorMatrix type="matrix" values="0 0 0 0 0 0 0 0 0 0 0 0 0 0 0 0 0 0 0.25 0"/>
<feBlend mode="normal" in2="shape" result="effect1_innerShadow"/>
</filter>
</defs>
</svg>
