<svg width="125" height="125" viewBox="0 0 125 125" fill="none" xmlns="http://www.w3.org/2000/svg">
<circle cx="62.5" cy="62.5" r="62.5" fill="#0C0A0A"/>
<g clip-path="url(#clip0)">
<path d="M60.8899 81.3423C58.6427 81.3531 56.4019 81.0705 54.2123 80.5C53.5614 80.3342 52.9229 80.1113 52.3028 79.8334L53.8459 82.8104L54.4495 92.1119C54.4495 93.1557 57.384 94.0001 61.0019 94.0001C64.6198 94.0001 67.5542 93.1557 67.5542 92.1119L68.0326 82.7096L69.4923 79.8248C68.867 80.1072 68.2227 80.333 67.5657 80.5C65.3766 81.0704 63.1365 81.353 60.8899 81.3423ZM69.5416 51.0758C66.7084 51.4736 63.855 51.6605 61 51.6352C58.145 51.6605 55.2916 51.4736 52.4584 51.0758C51.5585 50.9525 50.6695 50.7432 49.801 50.45C49.5749 50.3707 49.3556 50.2682 49.1462 50.1435L50.5603 64.8503C50.6261 64.5973 50.6995 64.3444 50.7805 64.0915C50.9445 63.5745 51.1346 63.0686 51.3499 62.5763C51.5627 62.0941 51.801 61.6266 52.0636 61.1767C52.3113 60.7511 52.5853 60.3458 52.8836 59.9637C53.1538 59.6149 53.4525 59.2956 53.7757 59.01C54.0592 58.7586 54.3698 58.5491 54.7001 58.3863C54.9922 58.2448 55.3067 58.172 55.6245 58.172C55.9847 58.1744 56.3376 58.287 56.6457 58.4978C57.02 58.7658 57.3354 59.1264 57.5682 59.5522C57.6305 59.6507 57.6732 59.7633 57.6935 59.8823C57.7105 59.9862 57.7194 60.0916 57.72 60.1973C57.7298 60.3949 57.6774 60.59 57.572 60.7482C57.5312 60.8101 57.4783 60.8605 57.4174 60.8954C57.3564 60.9304 57.2892 60.9489 57.2208 60.9496C57.1526 60.9458 57.086 60.9245 57.0262 60.8874C56.9663 60.8503 56.9148 60.7983 56.8754 60.7352C56.7399 60.537 56.6205 60.3254 56.5185 60.103C56.4217 59.8901 56.2819 59.7058 56.1104 59.565C55.9676 59.4558 55.7989 59.3975 55.6264 59.3979C55.3089 59.417 55.005 59.5499 54.7589 59.7772C54.4182 60.0665 54.1114 60.4036 53.8459 60.7803C53.524 61.2296 53.234 61.7068 52.9785 62.2077C52.7045 62.738 52.4598 63.287 52.2458 63.8515C52.0405 64.3894 51.871 64.9439 51.739 65.5104C51.6212 65.9887 51.5575 66.482 51.5492 66.9784C51.5497 67.1275 51.5585 67.2765 51.5758 67.4243C51.5908 67.5675 51.624 67.7075 51.6745 67.84C51.7164 67.9571 51.7813 68.0619 51.8643 68.1465C51.9528 68.2286 52.0649 68.2713 52.1794 68.2665C52.3512 68.2575 52.5186 68.2016 52.6672 68.1036C52.8684 67.9811 53.0591 67.8376 53.2366 67.675C53.4425 67.4882 53.6389 67.2885 53.8251 67.077C54.0225 66.8556 54.2059 66.6305 54.3755 66.4019C54.5451 66.1733 54.6957 65.9547 54.8273 65.7461C54.9392 65.5735 55.0382 65.3906 55.1234 65.1996L55.6624 63.3779C55.7073 63.2084 55.7974 63.0585 55.9206 62.9492C56.016 62.8703 56.1307 62.8268 56.249 62.8249C56.3038 62.8249 56.3583 62.8351 56.4103 62.8549C56.4665 62.8759 56.5179 62.9109 56.5606 62.9572C56.6033 63.0036 56.6363 63.0602 56.6571 63.1228C56.6836 63.2007 56.6965 63.2837 56.695 63.3671C56.6959 63.6017 56.6762 63.8357 56.6362 64.0658C56.5983 64.2833 56.5488 64.498 56.4881 64.7087C56.4287 64.916 56.3622 65.1239 56.2888 65.3325C56.2154 65.541 56.1439 65.7597 56.0743 65.9883C56.0402 66.0668 56.0122 66.1485 55.9908 66.2326C55.9503 66.3755 55.901 66.5477 55.8428 66.7491C55.7846 66.9505 55.7213 67.1821 55.653 67.4435L55.4442 68.2258C55.372 68.4916 55.3037 68.7524 55.2392 69.0081C55.1746 69.2638 55.1158 69.4953 55.0626 69.7024L54.9317 70.2211C54.8975 70.3604 54.8747 70.4354 54.8671 70.4698C54.8436 70.5642 54.8124 70.656 54.7741 70.7441C54.732 70.8448 54.6818 70.9409 54.6242 71.0313C54.5704 71.1127 54.5065 71.1849 54.4344 71.2456C54.3737 71.3017 54.2982 71.3333 54.2199 71.3356C54.1681 71.3405 54.1161 71.3303 54.0689 71.3059C54.0217 71.2815 53.9809 71.2437 53.9503 71.1963C53.8819 71.0372 53.853 70.8602 53.8668 70.6841V70.5747C53.865 70.5362 53.865 70.4976 53.8668 70.459C53.8914 70.3006 53.9282 70.145 53.9769 69.994C54.0313 69.7667 54.0946 69.5096 54.1667 69.2224C54.2388 68.9352 54.3198 68.638 54.4097 68.3308C54.497 68.0236 54.5754 67.7485 54.645 67.5057C54.4401 67.7643 54.218 68.0215 53.9788 68.2772C53.7472 68.5255 53.5011 68.7561 53.2423 68.9673C53.0048 69.1622 52.7504 69.3295 52.4831 69.4667C52.2525 69.5892 52.0014 69.655 51.7466 69.6596C51.5017 69.6671 51.2598 69.5973 51.0481 69.4582C51.012 69.4345 50.9798 69.4067 50.9475 69.3788L51.7352 78.7061C51.9402 79.2869 55.801 80.7122 60.8937 80.7122C65.9864 80.7122 69.851 79.2847 70.0522 78.704L71.1911 67.615L70.9196 67.8979C70.6268 68.2082 70.3201 68.5014 70.0009 68.7766C69.741 69.0037 69.4581 69.195 69.1582 69.3467C68.8801 69.4819 68.5802 69.5505 68.2775 69.5482C68.0353 69.5663 67.795 69.4907 67.596 69.3339C67.5171 69.263 67.4541 69.1721 67.4122 69.0685C67.3703 68.965 67.3507 68.8518 67.355 68.7381V68.6802C67.3533 68.6581 67.3533 68.6358 67.355 68.6137C67.3818 68.423 67.4433 68.2406 67.5353 68.0779C67.6502 67.86 67.777 67.6503 67.9149 67.45C68.0617 67.2327 68.218 67.0127 68.3837 66.7899C68.5495 66.5669 68.7033 66.3562 68.845 66.1576C68.9709 65.9828 69.0881 65.8004 69.1962 65.6111C69.2734 65.4931 69.3212 65.354 69.3347 65.2082C69.3357 65.1801 69.3309 65.1521 69.3206 65.1264C69.3105 65.1007 69.2951 65.0781 69.2759 65.0603C69.2196 65.0192 69.1528 65.0004 69.086 65.0066C68.9196 65.0098 68.7559 65.056 68.6078 65.1417C68.4325 65.24 68.2686 65.3624 68.1199 65.5061C67.9523 65.6669 67.7956 65.8417 67.6511 66.029C67.499 66.225 67.3558 66.4296 67.222 66.642C67.0892 66.8534 66.9677 67.0678 66.8577 67.2849C66.7476 67.5021 66.6539 67.7 66.5767 67.8785L66.478 68.1186C66.435 68.2215 66.3888 68.338 66.3394 68.468C66.2901 68.598 66.237 68.7308 66.18 68.8666C66.1243 69.0095 66.0731 69.1388 66.0263 69.2545L65.901 69.5803C65.8643 69.6761 65.8383 69.7418 65.8232 69.7775C65.8079 69.8132 65.7763 69.9011 65.7282 70.0411C65.684 70.1697 65.6327 70.3211 65.5745 70.4955L65.3847 71.042L65.2044 71.5842L65.0563 72.0343C65.0145 72.1629 64.9861 72.2486 64.9747 72.2979C64.9373 72.4279 64.8916 72.5547 64.838 72.6772C64.7894 72.7901 64.7288 72.8958 64.6577 72.9923C64.5928 73.0791 64.5143 73.1518 64.4261 73.2066C64.3365 73.2618 64.2359 73.2898 64.1338 73.2881C64.011 73.294 63.8898 73.2549 63.7884 73.1766C63.7375 73.1223 63.6986 73.0551 63.6748 72.9806C63.6511 72.9062 63.6432 72.8265 63.6517 72.748C63.6519 72.6411 63.6634 72.5346 63.6858 72.4307C63.7093 72.3218 63.7385 72.2145 63.7732 72.1093C63.8073 72.0022 63.8434 71.895 63.8814 71.7985C63.9193 71.7021 63.9516 71.6014 63.982 71.507C64.1908 70.9898 64.4034 70.4719 64.6198 69.9532C64.8361 69.4345 65.0437 68.9202 65.2423 68.4101C65.2841 68.3029 65.3221 68.1958 65.3619 68.095L65.3259 68.1358C65.0869 68.3955 64.8332 68.6374 64.5666 68.8602C64.3359 69.0565 64.0871 69.224 63.8244 69.3596C63.6003 69.4782 63.3564 69.5417 63.1089 69.546C62.9726 69.5508 62.8372 69.5215 62.7121 69.4603C62.6116 69.4084 62.5241 69.3287 62.4578 69.2288C62.3913 69.1244 62.3447 69.0054 62.3211 68.8795C62.3211 68.8344 62.3059 68.7852 62.3002 68.7381C62.2319 68.7981 62.1636 68.8559 62.0952 68.9116C61.8732 69.0911 61.636 69.2454 61.3872 69.3725C61.1913 69.4788 60.9781 69.5379 60.7608 69.546C60.6763 69.5487 60.5923 69.531 60.5144 69.4941C60.4365 69.4571 60.3665 69.4018 60.309 69.3317C60.1755 69.1261 60.1139 68.8718 60.1363 68.618C60.141 68.3385 60.1722 68.0605 60.2294 67.7885C60.119 68.0051 59.992 68.2103 59.8497 68.4015C59.6964 68.6108 59.5233 68.8005 59.3334 68.9673C59.1359 69.14 58.9173 69.2793 58.6842 69.381C58.4347 69.4887 58.1694 69.5425 57.9023 69.5396C57.778 69.5403 57.6541 69.5223 57.534 69.486C57.4196 69.4515 57.3137 69.3877 57.2246 69.2995C57.1298 69.2021 57.0564 69.0809 57.0101 68.9459C56.9512 68.7686 56.9235 68.5801 56.9285 68.3908C56.9285 68.3908 56.9285 68.3072 56.9513 68.155C56.985 67.9113 57.0345 67.6705 57.0993 67.4349C57.1828 67.1064 57.3094 66.6777 57.479 66.149C57.6485 65.6204 57.894 64.9874 58.2154 64.2502C58.2748 64.0823 58.3716 63.9346 58.4964 63.8215C58.5964 63.7383 58.7175 63.6932 58.8418 63.6929C58.899 63.6936 58.9558 63.7029 59.0107 63.7207C59.069 63.7388 59.1242 63.7679 59.174 63.8065C59.2237 63.845 59.2651 63.8956 59.2955 63.9544C59.3281 64.0196 59.3439 64.0939 59.341 64.1687C59.3414 64.2186 59.3357 64.2684 59.324 64.3165C59.2931 64.4363 59.2511 64.5519 59.1987 64.6616C59.1354 64.8045 59.0607 64.9674 58.9747 65.1503C58.8887 65.3332 58.7988 65.531 58.7052 65.744C58.6103 65.9554 58.5223 66.1747 58.4414 66.4019C58.3603 66.6288 58.2906 66.8606 58.2326 67.0964C58.1762 67.3199 58.1431 67.55 58.1338 67.7822C58.1333 67.8715 58.1536 67.9595 58.1927 68.0372C58.2114 68.0746 58.2393 68.1054 58.2729 68.1259C58.3064 68.1464 58.3444 68.1557 58.3825 68.1529C58.6425 68.1497 58.8948 68.052 59.1018 67.8744C59.3399 67.6769 59.5527 67.4432 59.734 67.1799C59.9294 66.899 60.1046 66.6009 60.2578 66.2884C60.4147 65.9711 60.5451 65.6804 60.6489 65.4161C60.7235 65.2325 60.7869 65.0435 60.8386 64.8503C60.8932 64.6608 60.9566 64.4748 61.0285 64.293C61.0848 64.1385 61.161 63.9941 61.2543 63.8644C61.2924 63.8102 61.3409 63.7665 61.3962 63.7368C61.4514 63.707 61.512 63.6921 61.5733 63.6929C61.6369 63.6903 61.7002 63.705 61.7577 63.7361C61.8153 63.767 61.8652 63.8132 61.9035 63.8707C61.9861 63.9939 62.0289 64.1451 62.025 64.2994C62.0177 64.4312 61.9914 64.5608 61.9472 64.683C61.8953 64.846 61.8321 65.0317 61.7573 65.2403C61.6827 65.4489 61.5966 65.6725 61.4992 65.9111C61.4068 66.1497 61.3208 66.3912 61.2411 66.6355C61.1667 66.8717 61.1034 67.1121 61.0512 67.3557C61.0016 67.5698 60.9754 67.7901 60.9734 68.0115C60.9692 68.05 60.9729 68.089 60.9844 68.1256C60.9958 68.1622 61.0146 68.1952 61.0392 68.2223C61.0638 68.2493 61.0937 68.2694 61.1265 68.2812C61.1591 68.293 61.1938 68.296 61.2278 68.2901C61.3835 68.2795 61.5354 68.232 61.6738 68.1508C61.8724 68.0433 62.0602 67.9118 62.2338 67.7585C62.2832 67.7157 62.3325 67.6728 62.3799 67.6279C62.4291 67.3896 62.4925 67.1555 62.5698 66.927C62.7052 66.5241 62.8425 66.1233 62.9817 65.7246L63.3613 64.6316L65.1171 59.6315C65.1669 59.4579 65.2655 59.3074 65.398 59.2028C65.5041 59.1242 65.6279 59.0811 65.7548 59.0785C65.8737 59.0784 65.989 59.1245 66.0813 59.2093C66.134 59.2626 66.1748 59.3292 66.2006 59.4037C66.2263 59.4782 66.2361 59.5584 66.2294 59.638C66.228 59.7383 66.2113 59.8376 66.18 59.9316C66.1433 60.0453 66.1015 60.1569 66.0547 60.2659C65.9586 60.5088 65.8434 60.806 65.7093 61.1575C65.5751 61.5089 65.4321 61.8912 65.2803 62.3041C65.1272 62.717 64.9709 63.1457 64.8114 63.5901L64.3426 64.8952C64.1908 65.3239 64.0478 65.7254 63.9136 66.0997L63.5682 67.0878C63.5202 67.2239 63.4785 67.3626 63.4429 67.5035C63.4047 67.6424 63.3843 67.7867 63.3821 67.9322C63.3793 67.9966 63.3911 68.0607 63.4163 68.1186C63.4304 68.1433 63.4503 68.163 63.4737 68.1755C63.4972 68.188 63.5234 68.1928 63.5492 68.1894C63.6553 68.1816 63.7588 68.1487 63.8529 68.0929C63.9898 68.0189 64.1218 67.9337 64.2477 67.8379C64.3895 67.7322 64.5362 67.6107 64.6881 67.4735C64.8399 67.3364 64.9918 67.1935 65.1436 67.0449C65.2942 66.902 65.4384 66.7548 65.5764 66.6034C65.7143 66.452 65.8371 66.3162 65.9447 66.1962C65.97 66.1673 66.0004 66.1446 66.0339 66.1297C66.0984 65.9154 66.1591 65.7011 66.2104 65.4867C66.2408 65.3939 66.2831 65.2617 66.3375 65.0903C66.3933 64.9189 66.4566 64.7508 66.5274 64.5866C66.5907 64.4339 66.6697 64.29 66.7627 64.158C66.7958 64.1083 66.8385 64.0675 66.8874 64.0389C66.9364 64.0104 66.9905 63.9946 67.0455 63.9929C67.1058 63.9867 67.1666 63.9942 67.2243 64.0148C67.282 64.0354 67.3354 64.0687 67.3815 64.1129C67.4188 64.1612 67.4471 64.2173 67.465 64.278C67.483 64.3386 67.4901 64.4028 67.486 64.4666C67.4846 64.5161 67.4808 64.5655 67.4745 64.6144C67.4745 64.6809 67.4575 64.7538 67.4461 64.8288C67.4346 64.9038 67.4214 64.9745 67.4081 65.0431C67.3989 65.0935 67.3862 65.1429 67.3701 65.191C67.5131 65.0152 67.6675 64.8409 67.8333 64.6681C67.9955 64.4983 68.1681 64.3414 68.3495 64.1987C68.5201 64.064 68.7027 63.9497 68.8943 63.8579C69.0701 63.7729 69.2592 63.7284 69.4505 63.7272C69.579 63.7274 69.7069 63.7483 69.8301 63.7893C69.9505 63.8279 70.0641 63.8895 70.1661 63.9715C70.2648 64.0515 70.347 64.1545 70.4072 64.2737C70.4718 64.4045 70.5039 64.5526 70.5002 64.7024C70.4956 64.9376 70.4471 65.1691 70.3578 65.3818C70.2571 65.6342 70.1378 65.8764 70.0009 66.1062C69.858 66.349 69.7036 66.5855 69.5378 66.8156C69.372 67.0456 69.2164 67.2549 69.0709 67.4435L68.7045 67.9236C68.6363 67.9989 68.5838 68.0905 68.5508 68.1915C68.55 68.2482 68.5691 68.3028 68.6039 68.3437C68.6533 68.3878 68.7159 68.4085 68.7786 68.4015C68.8827 68.3864 68.9822 68.3439 69.069 68.2772C69.2556 68.1479 69.4344 68.0047 69.6042 67.8485C69.8346 67.6443 70.1262 67.3706 70.4793 67.0278C70.7222 66.792 71.0051 66.5112 71.3259 66.1919L72.8596 50.1606C72.6501 50.2854 72.4309 50.388 72.2047 50.4671C71.3339 50.7549 70.443 50.9585 69.5416 51.0758ZM61 47.2759C54.3717 47.2759 49 48.1117 49 49.1447C49 50.1778 54.3565 51.0094 61 51.0094C67.6434 51.0094 73 50.1735 73 49.1405C73 48.1074 67.6207 47.2759 61 47.2759ZM65.7909 49.6913C65.7909 49.9335 65.1532 50.1199 64.3654 50.1199C63.5777 50.1199 62.9399 49.9227 62.9399 49.6913C62.9399 49.4598 63.5777 49.2626 64.3654 49.2626C65.1532 49.2626 65.7852 49.4448 65.7852 49.687L65.7909 49.6913Z" fill="#21DB7E"/>
<path d="M63.2208 49.4922C63.2138 49.5035 63.2098 49.517 63.2094 49.5308C63.2094 49.6872 63.7238 49.8137 64.3483 49.8137C64.9728 49.8137 65.4871 49.6872 65.4871 49.5308L66.9867 42.6725L72.9506 35.5634C73.0759 35.4027 72.8215 34.9033 72.3964 34.4747C71.9712 34.046 71.5119 33.9024 71.3694 34.0653L65.0278 41.6159L63.2208 49.4922Z" fill="#21DB7E"/>
</g>
<defs>
<clipPath id="clip0">
<rect width="24" height="60" fill="white" transform="translate(49 34)"/>
</clipPath>
</defs>
</svg>
