<svg width="133" height="133" viewBox="0 0 133 133" fill="none" xmlns="http://www.w3.org/2000/svg">
<g filter="url(#filter0_d)">
<circle cx="66.5" cy="62.5" r="62.5" fill="#0C0A0A"/>
<path d="M96.6173 38.4239C96.3397 38.1539 95.9497 38 95.5392 38H38.4608C38.0503 38 37.6603 38.1539 37.3827 38.4239C37.1052 38.6939 36.9693 39.0565 37.0058 39.4204L42.148 90.847C42.2021 91.3843 42.6213 91.837 43.2028 91.9857L66.591 97.9504C66.721 97.983 66.8569 98 66.9913 98C67.1257 98 67.2615 97.983 67.3915 97.9504L90.8002 91.9857C91.3816 91.837 91.8009 91.3843 91.8549 90.847L96.9942 39.4204C97.0307 39.0565 96.8934 38.6939 96.6173 38.4239ZM48.009 73.2226L58.2349 75.7557V49.7391H64.0783V83.6522L48.009 79.6726V73.2226ZM86.07 64.087L84.5302 80.0652L69.9217 83.6522V77.6509L79.7825 75.2313L80.1477 70.34L69.9217 71.913V49.7391H87.4519L86.9479 54.9565H75.7651V65.3913L86.07 64.087Z" fill="#21DB7E"/>
</g>
<defs>
<filter id="filter0_d" x="0" y="0" width="133" height="133" filterUnits="userSpaceOnUse" color-interpolation-filters="sRGB">
<feFlood flood-opacity="0" result="BackgroundImageFix"/>
<feColorMatrix in="SourceAlpha" type="matrix" values="0 0 0 0 0 0 0 0 0 0 0 0 0 0 0 0 0 0 127 0" result="hardAlpha"/>
<feOffset dy="4"/>
<feGaussianBlur stdDeviation="2"/>
<feComposite in2="hardAlpha" operator="out"/>
<feColorMatrix type="matrix" values="0 0 0 0 0 0 0 0 0 0 0 0 0 0 0 0 0 0 0.25 0"/>
<feBlend mode="normal" in2="BackgroundImageFix" result="effect1_dropShadow"/>
<feBlend mode="normal" in="SourceGraphic" in2="effect1_dropShadow" result="shape"/>
</filter>
</defs>
</svg>
