<svg width="111" height="179" viewBox="0 0 111 179" fill="none" xmlns="http://www.w3.org/2000/svg">
<path d="M55.5 0.785645C24.8801 0.785645 0.0535736 25.6066 0.0535736 56.2321C0.0535736 64.809 2.00286 72.9418 5.48454 80.1867C5.6793 80.5983 55.5 178.214 55.5 178.214L104.915 81.3996C108.77 73.8516 110.946 65.2962 110.946 56.2321C110.946 25.6066 86.1255 0.785645 55.5 0.785645ZM55.5 89.4999C37.1278 89.4999 22.2321 74.5987 22.2321 56.2321C22.2321 37.8654 37.1278 22.9642 55.5 22.9642C73.8667 22.9642 88.7679 37.8654 88.7679 56.2321C88.7679 74.5987 73.8667 89.4999 55.5 89.4999Z" fill="white"/>
</svg>
