<svg width="18" height="18" viewBox="0 0 18 18" fill="none" xmlns="http://www.w3.org/2000/svg">
<path d="M4.68 1.888H12.335C12.578 1.888 12.809 1.942 13.017 2.038C12.9543 1.74459 12.793 1.48153 12.5599 1.29264C12.3268 1.10376 12.036 1.00047 11.736 1H5.28C4.652 1 4.126 1.446 4 2.038C4.207 1.942 4.437 1.888 4.68 1.888ZM4.709 12.513H12.363C12.7 12.513 12.984 12.288 13.074 11.98V3.218C13.0293 3.06422 12.9359 2.92907 12.8079 2.8328C12.6799 2.73653 12.5242 2.68432 12.364 2.684H4.708C4.54853 2.6844 4.39345 2.73631 4.26587 2.832C4.13829 2.92768 4.04504 3.06202 4 3.215V11.982C4.04509 12.1351 4.13849 12.2696 4.26627 12.3653C4.39405 12.461 4.54936 12.5128 4.709 12.513V12.513ZM12.363 13.795H4.71C4.456 13.795 4.215 13.736 4.001 13.632V15.15C4.001 15.872 4.589 16.46 5.311 16.46H11.765C12.487 16.46 13.075 15.872 13.075 15.15V13.632C12.8538 13.7396 12.611 13.7954 12.365 13.795H12.363ZM9.721 15.571H7.353C7.29469 15.571 7.23696 15.5595 7.18309 15.5372C7.12922 15.5149 7.08027 15.4822 7.03904 15.441C6.99782 15.3997 6.96511 15.3508 6.9428 15.2969C6.92048 15.243 6.909 15.1853 6.909 15.127C6.909 15.0687 6.92048 15.011 6.9428 14.9571C6.96511 14.9032 6.99782 14.8543 7.03904 14.813C7.08027 14.7718 7.12922 14.7391 7.18309 14.7168C7.23696 14.6945 7.29469 14.683 7.353 14.683H9.72C9.77831 14.683 9.83604 14.6945 9.88991 14.7168C9.94378 14.7391 9.99273 14.7718 10.034 14.813C10.0752 14.8543 10.1079 14.9032 10.1302 14.9571C10.1525 15.011 10.164 15.0687 10.164 15.127C10.164 15.1853 10.1525 15.243 10.1302 15.2969C10.1079 15.3508 10.0752 15.3997 10.034 15.441C9.99273 15.4822 9.94378 15.5149 9.88991 15.5372C9.83604 15.5595 9.77831 15.571 9.72 15.571H9.721Z" fill="white"/>
</svg>
