<svg width="125" height="125" viewBox="0 0 125 125" fill="none" xmlns="http://www.w3.org/2000/svg">
<circle cx="62.5" cy="62.5" r="62.5" fill="#0C0A0A"/>
<path d="M92.2594 67.4537C89.8119 67.4694 87.6925 68.1417 85.9151 69.1424C85.2588 67.6571 84.6025 66.3592 84.4932 65.39C84.3701 64.2642 84.2197 63.5761 84.3701 62.2317C84.5204 60.8869 85.204 58.9794 85.204 58.823C85.1903 58.6823 85.0535 57.9943 83.6453 57.9788C82.2372 57.9631 81.0201 58.2914 80.8834 58.7136C80.7467 59.1358 80.4732 60.1051 80.2955 61.1058C80.0494 62.5754 77.4788 67.782 76.0158 70.5182C75.5373 69.455 75.127 68.5169 75.0449 67.7662C74.922 66.6407 74.7714 65.9526 74.922 64.6081C75.0724 63.2633 75.756 61.356 75.756 61.1996C75.7423 61.0589 75.6056 60.3709 74.1974 60.3553C72.7889 60.3397 71.5722 60.668 71.4355 61.0901C71.2987 61.5123 71.1483 62.513 70.8475 63.4823C70.5602 64.4517 67.142 73.1449 66.2532 75.412C65.802 76.569 65.4056 77.4914 65.1184 78.1169C64.8312 78.7423 65.1047 78.1638 65.0773 78.2263C64.8312 78.758 64.6944 79.055 64.6944 79.055V79.0708C64.5031 79.4617 64.2979 79.8368 64.2021 79.8368C64.1337 79.8368 63.997 78.7892 64.2295 77.3509C64.7353 74.3332 65.966 69.6271 65.9524 69.4551C65.9524 69.377 66.1847 68.5481 65.1592 68.1261C64.1611 67.704 63.8058 68.4076 63.7235 68.4076C63.6415 68.4076 63.5731 68.6578 63.5731 68.6578C63.5731 68.6578 64.6807 63.3576 61.4539 63.3576C59.4302 63.3576 56.6408 65.8749 55.2599 68.1732C54.3849 68.7204 52.5252 69.8773 50.5564 71.1127C49.8043 71.5817 49.0249 72.082 48.2866 72.5354L48.1363 72.3476C44.2259 67.5788 36.9928 64.2016 37.2936 57.7911C37.403 55.4614 38.114 49.3168 51.1856 41.8745C61.8917 35.7767 70.4646 37.4497 71.9549 41.1709C74.0742 46.4869 67.3744 56.3683 56.2446 57.7911C52.006 58.3383 49.7771 56.4621 49.2167 55.7586C48.6287 55.0237 48.5467 54.9924 48.3279 55.1331C47.9725 55.352 48.1912 56.0087 48.3279 56.3996C48.6561 57.3846 50.0234 59.1358 52.3478 60.0113C54.385 60.7774 59.3621 61.1996 65.3783 58.5416C72.1191 55.5553 77.3832 47.2686 75.8381 40.3422C74.2657 33.2907 64.0383 30.9767 54.3714 34.9011C48.6149 37.2464 42.38 40.9051 37.8952 45.7051C32.5627 51.3963 31.715 56.3683 32.0705 58.4321C33.3149 65.7963 42.1886 70.5963 45.7436 74.1456C45.5658 74.2549 45.4017 74.3643 45.2513 74.4582C43.4738 75.4588 36.7057 79.5084 35.0102 83.7923C33.096 88.6392 35.311 92.1261 36.7877 92.5951C41.3545 94.0492 46.0307 91.4381 48.5603 87.1385C51.0759 82.8388 50.7752 77.257 49.613 74.7084L49.5719 74.6147L50.9665 73.6766C51.8691 73.0668 52.7579 72.5039 53.5371 72.019C53.0997 73.3793 52.7851 74.9897 52.6212 77.335C52.4297 80.087 53.4141 83.6517 54.7132 85.0588C55.2874 85.6684 55.971 85.6842 56.3949 85.6842C57.899 85.6842 58.5826 84.2612 59.3346 82.5571C60.2644 80.4777 61.0848 78.0699 61.0848 78.0699C61.0848 78.0699 60.0593 84.5898 62.8623 84.5898C63.8878 84.5898 64.9132 83.0731 65.3781 82.2913V82.307C65.3781 82.307 65.4055 82.2601 65.4601 82.1507C65.5176 82.0537 65.5722 81.9547 65.6242 81.8538V81.8224C66.0344 81.0094 66.9505 79.1489 68.3179 76.0687C70.0816 72.0973 71.7771 67.1253 71.7771 67.1253C71.7771 67.1253 71.9412 68.3449 72.4472 70.3462C72.7477 71.5347 73.4041 72.8322 73.91 74.0987C73.4998 74.7553 73.2537 75.1308 73.2537 75.1308L73.2674 75.1463C72.9393 75.6467 72.5701 76.1784 72.1873 76.7099C70.7927 78.6174 69.1245 80.7909 68.9058 81.4162C68.6459 82.151 68.7007 82.6982 69.2066 83.1361C69.5757 83.4489 70.2321 83.5112 70.9294 83.4489C72.1873 83.3549 73.0624 82.9954 73.4999 82.7763C74.1836 82.4949 74.9629 82.0728 75.7149 81.4473C77.0823 80.2906 77.9163 78.6488 77.8343 76.4599C77.7933 75.256 77.4514 74.0677 77.0276 72.942C77.1506 72.7387 77.2739 72.5353 77.3968 72.3166C79.5571 68.7047 81.2253 64.7334 81.2253 64.7334C81.2253 64.7334 81.3893 65.953 81.8952 67.9543C82.1548 68.9707 82.6746 70.0809 83.1395 71.1753C81.1158 73.0672 79.8442 75.2561 79.4067 76.6946C78.6 79.3526 79.2289 80.5564 80.4185 80.8379C80.9516 80.963 81.7174 80.6816 82.2916 80.4001C83.0025 80.1343 83.864 79.6808 84.6571 79.0086C86.0245 77.8516 87.3371 76.2411 87.2687 74.0679C87.2277 73.0672 86.9952 72.0822 86.6807 71.1441C88.4036 70.331 90.6321 69.862 93.4626 70.2529C99.5472 71.0659 100.75 75.4124 100.518 77.2262C100.286 79.04 99.014 80.0406 98.59 80.3532C98.1662 80.6503 98.0294 80.7599 98.0705 80.9787C98.1251 81.3071 98.3166 81.2913 98.6858 81.229C99.1916 81.135 101.885 79.7436 101.995 76.3978C102.159 72.0976 98.59 67.4069 92.2594 67.4537ZM45.3334 85.5437C43.3234 88.0609 40.4931 89.0147 39.2899 88.2017C37.991 87.3417 38.4967 83.6361 40.9717 80.9626C42.4757 79.3364 44.431 77.8354 45.7162 76.913C46.0034 76.7098 46.4409 76.4128 46.9605 76.0531C47.0425 75.9907 47.0973 75.9592 47.0973 75.9592C47.1929 75.8967 47.3023 75.8186 47.4117 75.7403C48.3278 79.5553 47.4527 82.9013 45.3334 85.5437ZM60.0319 74.1143C59.3346 76.0687 57.8579 81.0876 56.9692 80.8062C56.2033 80.5717 55.7386 76.7723 56.8186 73.0198C57.3655 71.1278 58.5278 68.8764 59.2114 68.0008C60.3191 66.5936 61.5222 66.1246 61.8231 66.703C62.1787 67.4537 60.4695 72.8948 60.0319 74.1143ZM72.16 80.7437C71.8592 80.9158 71.5857 81.0407 71.4626 80.947C71.3669 80.8846 71.5855 80.65 71.5855 80.65C71.5855 80.65 73.1033 78.7893 73.7049 77.9294C74.0468 77.4292 74.4569 76.8508 74.8945 76.1939V76.3816C74.8946 78.6329 73.0077 80.1339 72.16 80.7437ZM81.5123 78.3046C81.2934 78.1169 81.3209 77.5384 82.0591 75.7248C82.3464 75.0056 83.0025 73.8016 84.1375 72.6602C84.2742 73.1292 84.3563 73.5826 84.3425 74.0049C84.329 76.8192 82.5788 77.8668 81.5123 78.3046Z" fill="#21DB7E"/>
</svg>
