<svg width="18" height="16" viewBox="0 0 18 16" fill="none" xmlns="http://www.w3.org/2000/svg">
<path d="M0.317884 7.67211L4.46488 9.25211L6.07088 14.5231C6.09302 14.6006 6.13412 14.6712 6.19048 14.7288C6.24683 14.7863 6.31666 14.8289 6.39362 14.8526C6.47058 14.8764 6.55225 14.8805 6.63123 14.8647C6.7102 14.8489 6.78398 14.8136 6.84588 14.7621L9.15788 12.8371C9.27496 12.7392 9.42163 12.6835 9.57422 12.6792C9.72681 12.6748 9.87641 12.722 9.99888 12.8131L14.1689 15.9041C14.2351 15.9529 14.3127 15.9841 14.3943 15.9948C14.4759 16.0054 14.5589 15.9951 14.6354 15.965C14.712 15.9348 14.7796 15.8857 14.832 15.8222C14.8844 15.7587 14.9198 15.683 14.9349 15.6021L17.9889 0.602113C18.0679 0.215113 17.6959 -0.107887 17.3349 0.034113L0.312884 6.73811C-0.107116 6.90411 -0.103116 7.51111 0.317884 7.67211V7.67211ZM5.81188 8.41211L13.9179 3.31411C14.0639 3.22311 14.2139 3.42411 14.0879 3.54211L7.39788 9.89111C7.16233 10.1162 7.01094 10.4151 6.96888 10.7381L6.74088 12.4621C6.71088 12.6921 6.39388 12.7151 6.33188 12.4921L5.45588 9.34811C5.40681 9.1744 5.41493 8.98952 5.47904 8.82078C5.54315 8.65204 5.65985 8.50841 5.81188 8.41111V8.41211Z" fill="white"/>
</svg>
