<svg width="125" height="125" viewBox="0 0 125 125" fill="none" xmlns="http://www.w3.org/2000/svg">
<circle cx="62.5" cy="62.5" r="62.5" fill="#0C0A0A"/>
<g clip-path="url(#clip0)">
<path d="M88.8756 39.3577L76.5204 33.3738C75.0917 32.6812 73.3819 32.9733 72.26 34.1018L31.8148 71.1926C30.728 72.1915 30.728 73.9137 31.8171 74.9102L35.1197 77.9304C36.0097 78.7455 37.3518 78.8044 38.3097 78.0741L87.0159 40.9102C88.6508 39.664 90.9976 40.8348 90.9976 42.8986V42.7549C90.9976 41.306 90.1732 39.9844 88.8756 39.3577Z" fill="#0BC467"/>
<path d="M88.8756 86.6436L76.5204 92.6275C75.0917 93.3201 73.3819 93.028 72.26 91.8996L31.8148 54.8088C30.728 53.8122 30.728 52.0877 31.8171 51.0935L35.1197 48.0733C36.0097 47.2582 37.3518 47.1993 38.3097 47.9296L87.0159 85.091C88.6508 86.3374 90.9976 85.1665 90.9976 83.1027V83.2464C90.9976 84.6952 90.1732 86.0169 88.8756 86.6436Z" fill="#0BC367"/>
<path d="M76.5228 92.6275C75.0917 93.3202 73.3843 93.028 72.26 91.8973C73.6419 93.2872 76.0076 92.3024 76.0076 90.3353V35.6626C76.0076 33.6955 73.6419 32.7107 72.26 34.1007C73.3819 32.9722 75.0917 32.6801 76.5228 33.3704L88.8756 39.3448C90.1732 39.9739 91 41.2931 91 42.742V83.2559C91 84.7048 90.1755 86.0241 88.8756 86.6531L76.5228 92.6275Z" fill="#21DB7E"/>
<g opacity="0.25">
<path opacity="0.25" fill-rule="evenodd" clip-rule="evenodd" d="M73.5201 92.7441C74.464 93.1139 75.5414 93.0904 76.4947 92.6286L88.8405 86.6542C90.1381 86.0275 90.9625 84.7059 90.9625 83.257V42.7455C90.9625 41.2966 90.1381 39.9773 88.8405 39.3483L76.4947 33.3738C75.244 32.7684 73.7801 32.9168 72.6816 33.7201C72.5247 33.8356 72.3748 33.9628 72.2343 34.1041L48.6014 55.7899L38.3074 47.9284C37.3494 47.1957 36.0097 47.2569 35.1197 48.0721L31.8171 51.0923C30.728 52.0889 30.728 53.811 31.8148 54.8099L40.7433 63.0012L31.8148 71.1926C30.728 72.1915 30.728 73.9136 31.8171 74.9101L35.1197 77.9304C36.0097 78.7455 37.3494 78.8044 38.3074 78.0741L48.6014 70.2149L72.2343 91.9006C72.609 92.2753 73.047 92.5603 73.5201 92.7441ZM75.9794 49.3113L58.0475 63.0012L75.9794 76.6936V49.3113Z" fill="url(#paint0_linear)"/>
</g>
</g>
<defs>
<linearGradient id="paint0_linear" x1="60.9809" y1="33.0016" x2="60.9809" y2="93.0009" gradientUnits="userSpaceOnUse">
<stop stop-color="white"/>
<stop offset="1" stop-color="white" stop-opacity="0"/>
</linearGradient>
<clipPath id="clip0">
<rect width="60" height="60" fill="white" transform="translate(31 33)"/>
</clipPath>
</defs>
</svg>
